<?xml version="1.0" encoding="UTF-8" standalone="no"?>
<!-- Uploaded to: SVG Repo, www.svgrepo.com, Generator: SVG Repo Mixer Tools -->

<svg
   width="800px"
   height="800px"
   viewBox="0 -96.5 1217 1217"
   class="icon"
   version="1.1"
   id="svg178"
   sodipodi:docname="logo.svg"
   inkscape:version="1.2 (dc2aeda, 2022-05-15)"
   xmlns:inkscape="http://www.inkscape.org/namespaces/inkscape"
   xmlns:sodipodi="http://sodipodi.sourceforge.net/DTD/sodipodi-0.dtd"
   xmlns="http://www.w3.org/2000/svg"
   xmlns:svg="http://www.w3.org/2000/svg">
  <defs
     id="defs182" />
  <sodipodi:namedview
     id="namedview180"
     pagecolor="#ffffff"
     bordercolor="#111111"
     borderopacity="1"
     inkscape:showpageshadow="0"
     inkscape:pageopacity="0"
     inkscape:pagecheckerboard="1"
     inkscape:deskcolor="#d1d1d1"
     showgrid="false"
     inkscape:zoom="1.07875"
     inkscape:cx="319.3511"
     inkscape:cy="326.76709"
     inkscape:window-width="2048"
     inkscape:window-height="1013"
     inkscape:window-x="0"
     inkscape:window-y="25"
     inkscape:window-maximized="1"
     inkscape:current-layer="svg178" />
  <path
     d="M 162.95627,41.890909 H 1058.9563 V 941.7697 H 162.95627 Z"
     fill="#cfddec"
     id="path132" />
  <path
     d="M 1058.9563,957.28485 H 162.95627 c -8.53333,0 -15.51515,-6.98182 -15.51515,-15.51515 V 41.890909 c 0,-8.533333 6.98182,-15.515152 15.51515,-15.515151 h 896.00003 c 8.5333,0 15.5151,6.981818 15.5151,15.515151 V 941.7697 c 0,8.53333 -6.9818,15.51515 -15.5151,15.51515 z M 178.47142,926.25454 H 1043.4411 V 57.406061 H 178.47142 Z"
     fill="#131313"
     id="path134" />
  <path
     d="M 962.76233,864.9697 H 246.73809 c -8.53333,0 -15.51515,-6.98182 -15.51515,-15.51516 v -716.8 c 0,-8.53333 6.98182,-15.51515 15.51515,-15.51515 h 716.02424 c 8.53334,0 15.51515,6.98182 15.51515,15.51515 v 716.8 c 0,8.53334 -6.98181,15.51516 -15.51515,15.51516 z M 262.25324,833.93939 H 947.24718 V 148.1697 H 262.25324 Z"
     fill="#131313"
     id="path136" />
  <path
     d="m 826.229,272.29091 c 17.84242,0 33.35758,14.73939 33.35757,33.35757 v 373.91516 c 0,17.84242 -14.73939,33.35757 -33.35757,33.35757 -17.84242,0 -33.35758,-14.73939 -33.35758,-33.35757 V 305.64848 c 0.77576,-18.61818 15.51516,-33.35757 33.35758,-33.35757 z"
     fill="#e1efff"
     id="path138" />
  <path
     d="m 826.229,728.43636 c -26.37576,0 -48.87273,-21.72121 -48.87273,-48.87272 V 305.64848 c 0,-26.37575 21.72121,-48.87272 48.87273,-48.87272 27.15152,0 48.87273,21.72121 48.87273,48.87272 v 374.69091 c 0,26.37576 -22.49697,48.09697 -48.87273,48.09697 z m 0,-440.6303 c -9.30909,0 -17.84242,7.75758 -17.84243,17.84242 v 374.69091 c 0,9.30909 7.75758,17.84243 17.84243,17.84243 10.08485,0 17.84242,-7.75758 17.84242,-17.84243 V 305.64848 c 0,-10.08484 -8.53333,-17.84242 -17.84242,-17.84242 z"
     fill="#131313"
     id="path140" />
  <path
     d="m 246.73809,255.22424 c 18.61818,0 34.13333,15.51515 34.13333,34.13334 v 71.36969 c 0,18.61818 -15.51515,34.13334 -34.13333,34.13334 -18.61818,0 -34.13333,-15.51516 -34.13333,-34.13334 v -71.36969 c 0,-19.39394 15.51515,-34.13334 34.13333,-34.13334 z"
     fill="#e1efff"
     id="path142" />
  <path
     d="m 246.73809,410.37576 c -27.15151,0 -49.64848,-22.49697 -49.64848,-49.64849 v -71.36969 c 0,-27.15152 22.49697,-49.64849 49.64848,-49.64849 27.15152,0 49.64849,22.49697 49.64848,49.64849 v 71.36969 c 0,27.15152 -21.72121,49.64849 -49.64848,49.64849 z m 0,-139.63637 c -10.08485,0 -18.61818,8.53334 -18.61818,18.61819 v 71.36969 c 0,10.08485 8.53333,18.61819 18.61818,18.61819 10.08485,0 18.61818,-8.53334 18.61818,-18.61819 v -71.36969 c 0,-10.08485 -7.75757,-18.61819 -18.61818,-18.61819 z"
     fill="#131313"
     id="path144" />
  <path
     d="m 246.73809,595.00606 c 18.61818,0 34.13333,15.51515 34.13333,34.13333 v 71.3697 c 0,18.61818 -15.51515,34.13333 -34.13333,34.13333 -18.61818,0 -34.13333,-15.51515 -34.13333,-34.13333 v -71.3697 c 0,-18.61818 15.51515,-34.13333 34.13333,-34.13333 z"
     fill="#e1efff"
     id="path146" />
  <path
     d="m 246.73809,750.15758 c -27.15151,0 -49.64848,-22.49697 -49.64848,-49.64849 v -71.3697 c 0,-27.15151 22.49697,-49.64848 49.64848,-49.64848 27.15152,0 49.64849,22.49697 49.64848,49.64848 v 71.3697 c 0,27.15152 -21.72121,49.64849 -49.64848,49.64849 z m 0,-139.63637 c -10.08485,0 -18.61818,8.53333 -18.61818,18.61818 v 71.3697 c 0,10.08485 8.53333,18.61818 18.61818,18.61818 10.08485,0 18.61818,-8.53333 18.61818,-18.61818 v -71.3697 c 0,-10.08484 -7.75757,-18.61818 -18.61818,-18.61818 z"
     fill="#131313"
     id="path148" />
  <path
     d="m 524.4593,495.70909 m -161.35757,0 a 161.35758,161.35758 0 1 0 322.71515,0 161.35758,161.35758 0 1 0 -322.71515,0 z"
     fill="#7d8792"
     id="path150" />
  <path
     d="m 524.4593,672.58182 c -97.74545,0 -176.87272,-79.12728 -176.87273,-176.87273 0,-97.74545 79.12728,-177.64848 176.87273,-177.64848 97.74546,0 176.87273,79.12727 176.87273,176.87272 0,97.74546 -79.12727,177.64849 -176.87273,177.64849 z m 0,-323.49091 c -80.67879,0 -146.61818,65.93939 -146.61818,146.61818 0,80.67879 65.16364,145.84242 145.84242,145.84242 80.67879,0 145.84243,-65.16363 145.84243,-145.84242 C 670.30173,415.0303 605.13809,349.09091 524.4593,349.09091 Z"
     fill="#131313"
     id="path152" />
  <path
     d="m 246.73809,941.7697 h 96.9697 v 48.87272 c 0,10.08488 -7.75758,17.84238 -17.84243,17.84238 h -61.28484 c -10.08485,0 -17.84243,-7.7575 -17.84243,-17.84238 z"
     fill="#cfddec"
     id="path154" />
  <path
     d="m 326.64112,1024 h -61.28485 c -18.61818,0 -33.35757,-14.7394 -33.35757,-33.35758 V 941.7697 c 0,-8.53334 6.98182,-15.51516 15.51515,-15.51516 h 96.96969 c 8.53334,0 15.51516,6.98182 15.51516,15.51516 v 48.87272 c 0,18.61818 -15.51516,33.35758 -33.35758,33.35758 z m -64.38788,-66.71515 v 33.35757 c 0,1.55152 0.77576,2.32728 2.32728,2.32728 h 61.28484 c 1.55152,0 2.32728,-0.77576 2.32728,-2.32728 v -33.35757 z"
     fill="#131313"
     id="path156" />
  <path
     d="m 872.77445,941.7697 h 96.9697 v 48.87272 c 0,10.08488 -7.75758,17.84238 -17.84242,17.84238 h -61.28485 c -10.08485,0 -17.84243,-7.7575 -17.84243,-17.84238 z"
     fill="#cfddec"
     id="path158" />
  <path
     d="m 951.90173,1024 h -61.28485 c -18.61818,0 -33.35758,-14.7394 -33.35758,-33.35758 V 941.7697 c 0,-8.53334 6.98182,-15.51516 15.51515,-15.51516 h 96.9697 c 8.53333,0 15.51515,6.98182 15.51515,15.51516 v 48.87272 c 0,18.61818 -14.73939,33.35758 -33.35757,33.35758 z m -63.61212,-66.71515 v 33.35757 c 0,1.55152 0.77575,2.32728 2.32727,2.32728 h 61.28485 c 1.55151,0 2.32727,-0.77576 2.32727,-2.32728 V 957.28485 Z M 900.70173,213.33333 H 309.57445 c -8.53333,0 -15.51515,-6.98182 -15.51515,-15.51515 0,-8.53333 6.98182,-15.51515 15.51515,-15.51515 h 591.12728 c 8.53333,0 15.51515,6.98182 15.51515,15.51515 0,8.53334 -6.98182,15.51515 -15.51515,15.51515 z m 0,592.67879 H 309.57445 c -8.53333,0 -15.51515,-6.98182 -15.51515,-15.51515 0,-8.53333 6.98182,-15.51515 15.51515,-15.51515 h 591.12728 c 8.53333,0 15.51515,6.98182 15.51515,15.51515 0,8.53333 -6.98182,15.51515 -15.51515,15.51515 z"
     fill="#131313"
     id="path160" />
  <path
     d="m 524.4593,672.58182 c -8.53333,0 -15.51515,-6.98182 -15.51515,-15.51515 V 333.57576 c 0,-8.53334 6.98182,-15.51515 15.51515,-15.51515 8.53334,0 15.51515,6.98181 15.51515,15.51515 v 323.49091 c 0,8.53333 -6.98181,15.51515 -15.51515,15.51515 z"
     fill="#131313"
     id="path162" />
  <path
     d="M 685.81688,511.22424 H 362.32597 c -8.53333,0 -15.51515,-6.98182 -15.51515,-15.51515 0,-8.53333 6.98182,-15.51515 15.51515,-15.51515 h 323.49091 c 8.53333,0 15.51515,6.98182 15.51515,15.51515 0,8.53333 -6.98182,15.51515 -15.51515,15.51515 z"
     fill="#131313"
     id="path164" />
  <path
     d="m 410.42294,625.26061 c -3.87879,0 -7.75758,-1.55152 -10.86061,-4.65455 -6.20606,-6.20606 -6.20606,-15.51515 0,-21.72121 L 628.41082,370.03636 c 6.20606,-6.20606 15.51515,-6.20606 21.72121,0 6.20606,6.20606 6.20606,15.51516 0,21.72122 L 421.28354,620.60606 c -3.10303,3.10303 -6.98181,4.65455 -10.8606,4.65455 z"
     fill="#131313"
     id="path166" />
  <path
     d="m 638.49567,625.26061 c -3.87879,0 -7.75758,-1.55152 -10.86061,-4.65455 L 398.78657,391.75758 c -6.20606,-6.20607 -6.20606,-15.51516 0,-21.72122 6.20607,-6.20606 15.51516,-6.20606 21.72122,0 l 228.84848,228.84849 c 6.20606,6.20606 6.20606,15.51515 0,21.72121 -3.10303,3.10303 -6.98182,4.65455 -10.8606,4.65455 z"
     fill="#131313"
     id="path168" />
  <path
     d="m 524.4593,495.70909 m -89.21212,0 a 89.212121,89.212121 0 1 0 178.42424,0 89.212121,89.212121 0 1 0 -178.42424,0 z"
     fill="#ffffff"
     id="path170" />
  <path
     d="m 524.4593,600.43636 c -57.40606,0 -104.72727,-47.32121 -104.72727,-104.72727 0,-57.40606 47.32121,-104.72727 104.72727,-104.72727 57.40606,0 104.72728,47.32121 104.72727,104.72727 0,57.40606 -47.32121,104.72727 -104.72727,104.72727 z m 0,-178.42424 c -40.33939,0 -73.69697,33.35758 -73.69697,73.69697 0,40.33939 33.35758,73.69697 73.69697,73.69697 40.3394,0 73.69697,-33.35758 73.69697,-73.69697 0,-41.11515 -33.35757,-73.69697 -73.69697,-73.69697 z"
     fill="#131313"
     id="path172" />
  <path
     d="m 280.87142,680.33939 h -68.26666 c -8.53334,0 -15.51516,-6.98181 -15.51515,-15.51515 0,-8.53333 6.98181,-15.51515 15.51515,-15.51515 h 68.26666 c 8.53334,0 15.51516,6.98182 15.51515,15.51515 0,8.53333 -6.20606,15.51515 -15.51515,15.51515 z"
     fill="#131313"
     id="path174" />
  <path
     d="m 280.87142,340.55758 h -68.26666 c -8.53334,0 -15.51516,-6.98182 -15.51515,-15.51516 0,-8.53333 6.98181,-15.51515 15.51515,-15.51515 h 68.26666 c 8.53334,0 15.51516,6.98182 15.51515,15.51515 0,8.53334 -6.20606,15.51516 -15.51515,15.51516 z"
     fill="#131313"
     id="path176" />
</svg>
